<svg width="72" height="72" viewBox="0 0 72 72" fill="none" xmlns="http://www.w3.org/2000/svg">
<path d="M6 18C6 16.4087 6.63214 14.8826 7.75736 13.7574C8.88258 12.6321 10.4087 12 12 12H60C61.5913 12 63.1174 12.6321 64.2426 13.7574C65.3679 14.8826 66 16.4087 66 18V54C66 55.5913 65.3679 57.1174 64.2426 58.2426C63.1174 59.3679 61.5913 60 60 60H12C10.4087 60 8.88258 59.3679 7.75736 58.2426C6.63214 57.1174 6 55.5913 6 54V18Z" stroke="black" stroke-width="4" stroke-linecap="round" stroke-linejoin="round"/>
<path d="M6 24L28.503 42.003C30.6309 43.7055 33.2749 44.6331 36 44.6331C38.7251 44.6331 41.3691 43.7055 43.497 42.003L66 24" stroke="black" stroke-width="4" stroke-linejoin="round"/>
<path d="M8 58.5L23.5 39" stroke="black" stroke-width="4"/>
<path d="M64 58.5L48.5 39" stroke="black" stroke-width="4"/>
</svg>
