<svg width="72" height="72" viewBox="0 0 72 72" fill="none" xmlns="http://www.w3.org/2000/svg">
<path d="M17.0962 12.7259V58.2741C17.0962 59.5275 17.5941 60.7295 18.4804 61.6158C19.3667 62.5021 20.5687 63 21.8221 63H50.1777C51.4311 63 52.6331 62.5021 53.5194 61.6158C54.4057 60.7295 54.9036 59.5275 54.9036 58.2741V22.9859C54.9035 22.3563 54.7776 21.7331 54.5334 21.1528C54.2891 20.5726 53.9313 20.047 53.4811 19.6069L42.9895 9.34689C42.1066 8.4836 40.9209 8.00015 39.6861 8H21.8221C20.5687 8 19.3667 8.49791 18.4804 9.38419C17.5941 10.2705 17.0962 11.4725 17.0962 12.7259Z" stroke="black" stroke-width="4" stroke-linecap="round" stroke-linejoin="round"/>
<path d="M29 37H43.1778" stroke="black" stroke-width="4" stroke-linecap="round" stroke-linejoin="round"/>
<path d="M29 46.4519H36.0889" stroke="black" stroke-width="4" stroke-linecap="round" stroke-linejoin="round"/>
<path d="M40.7258 8V17.4519C40.7258 18.7052 41.2237 19.9073 42.11 20.7936C42.9963 21.6799 44.1984 22.1778 45.4518 22.1778H54.9036" stroke="black" stroke-width="4" stroke-linejoin="round"/>
</svg>
